<?xml version="1.0" encoding="UTF-8" standalone="no"?>
<!DOCTYPE svg>
<svg xmlns="http://www.w3.org/2000/svg" width="16" height="16">
    <rect transform="scale(0.66)" id="Rect" x="2" y="6" width="20" height="12"/>
    <text id="Text" x="3" y="13" font-size="16" stroke="black" font-family="Times New Roman">T</text>

    <path id="shit"
          fill="rgb(89, 48, 1)"
          d="m 7.1369915,15.964357 c -2.5265232,-0.21863 -4.6092049,-0.98236 -5.8460989,-2.14379 -0.45466921,-0.42692 -0.67997113,-0.72952 -0.93910765,-1.26129 -0.46208548,-0.94823 -0.46990708,-2.25976 -0.0177649,-2.9786499 0.27488984,-0.43706 1.05830085,-1.14954 1.15168285,-1.0474 0.024447,0.0267 0.076578,0.19326 0.1158474,0.37005 0.039269,0.17679 0.1307803,0.45091 0.2033587,0.60916 0.2053853,0.44781 0.8551304,1.2758899 0.8551304,1.0898299 0,-0.0323 -0.028286,-0.0755 -0.062858,-0.0961 -0.1274976,-0.0759 -0.4877551,-0.9201199 -0.5796183,-1.3582599 -0.1450583,-0.69186 -0.091585,-1.58714 0.1348769,-2.25821 0.293853,-0.87076 0.8679958,-1.55185 1.5779418,-1.87188 0.3009585,-0.13566 0.7983565,-0.26637 1.0136669,-0.26637 0.036693,0 0.1100108,0.15067 0.1629296,0.33483 0.118394,0.412 0.3557696,0.77803 0.686332,1.05832 0.2640572,0.2239 0.7064164,0.45311 0.987538,0.51169 0.147308,0.0307 0.1341924,0.013 -0.1120148,-0.15115 -0.3942708,-0.26287 -0.6793552,-0.58591 -0.8798956,-0.99707 -0.2361624,-0.48418 -0.2741664,-1.2142 -0.098248,-1.88723 0.1349712,-0.51637 0.4489188,-1.1783 0.79025,-1.66618 0.5830108,-0.83331 1.6929588,-1.72218998 2.4216972,-1.93936998 0.1151276,-0.0343 0.1175412,-0.0269 0.063532,0.19396 -0.09329,0.38156 -0.074985,1.20892998 0.03466,1.56663998 0.3057692,0.99757 0.860192,1.64631 2.6018629,3.04452 1.504151,1.20752 1.926815,1.66604 2.197205,2.38361 0.155515,0.41271 0.172364,1.0774 0.03842,1.51546 -0.118958,0.38902 -0.416596,0.95509 -0.751578,1.4293899 -0.291336,0.4125 -0.264399,0.49493 0.07395,0.22627 0.37829,-0.30037 0.801462,-1.1310699 0.902173,-1.7710099 0.02048,-0.1301 0.05036,-0.3027 0.06641,-0.38356 l 0.02918,-0.14702 0.25982,0.17126 c 0.1429,0.0942 0.461774,0.36526 0.708608,0.60238 0.787195,0.75622 1.134513,1.6223899 1.064284,2.6542199 -0.142264,2.0902 -2.037491,3.6538 -5.15581,4.25364 -1.1057317,0.2127 -2.6496241,0.30009 -3.6983521,0.20934 z"
            />

    <path id="close"
          d="m 10.476445,7.9999981 5.425867,-5.425724 c 0.130251,-0.130248 0.130251,-0.34138 0,-0.471628 L 13.897673,0.09772609 C 13.835133,0.03518709 13.750243,-1.907349e-6 13.661852,-1.907349e-6 c -0.08839,0 -0.173279,0.035189997349 -0.23582,0.097729997349 L 8,5.5236171 2.5739673,0.09772609 c -0.1250813,-0.125078 -0.3465589,-0.125078 -0.4716403,0 L 0.09768855,2.1026461 c -0.1302514,0.130248 -0.1302514,0.34138 0,0.471628 L 5.5235542,7.9999981 0.09768855,13.425723 c -0.1302514,0.130248 -0.1302514,0.34138 0,0.471627 L 2.102327,15.902103 c 0.062541,0.06254 0.1474293,0.09773 0.2358202,0.09773 0.088391,0 0.1732793,-0.03519 0.2358201,-0.09773 L 8,10.476379 13.426032,15.90227 C 13.488572,15.96481 13.573462,16 13.661852,16 c 0.08839,0 0.17328,-0.03519 0.235821,-0.09773 l 2.004639,-2.004753 c 0.130251,-0.130248 0.130251,-0.34138 0,-0.471628 L 10.476445,7.9999981 z"
            />


    <path id="ok"
          d="M 15.934468,3.789477 6.014173,13.933145 c -0.08738,0.08914 -0.228863,0.08914 -0.316038,0 l -5.63275,-5.75988 c -0.08718,-0.08893 -0.08718,-0.233593 0,-0.322939 L 1.434067,6.450853 c 0.08738,-0.08914 0.228863,-0.08914 0.316039,0 l 4.106252,4.198626 8.393593,-8.582622 c 0.08738,-0.08914 0.228658,-0.08914 0.315834,0 l 1.368683,1.399472 c 0.08738,0.08914 0.08738,0.233802 0,0.323148 z"
            />


    <path id="New"
          d="M 11.5041,0.66201692 H 3.235712 c -1.008832,0 -1.829475,0.82064258 -1.829475,1.82932098 V 13.832695 c 0,1.008679 0.820612,1.829322 1.829475,1.829322 h 9.710594 c 1.008864,-3.1e-5 1.829475,-0.820673 1.829475,-1.829353 V 4.0104769 L 11.5041,0.66201692 z M 12.946306,14.357664 H 3.235712 c -0.289478,0 -0.525122,-0.235521 -0.525122,-0.524969 V 2.4913379 c 0,-0.289478 0.235675,-0.5249683 0.525122,-0.5249683 h 7.627041 v 1.4602433 c 0,0.645489 0.524814,1.17061 1.170304,1.177144 l 1.438402,0.01463 v 9.2143381 c 0,0.289417 -0.235705,0.524938 -0.525153,0.524938 z"
            />


    <g id="Open"
       transform="matrix(0.08620952,0,0,0.08620952,-0.62102317,-0.62103821)">
        <path
                d="m 101,43.258 c -2.761,0 -6.869,-1.231 -9.175,-2.75 l -15.09,-9.94 c -2.306,-1.519 -6.414,-2.75 -9.176,-2.75 H 18.677 c -2.761,0 -4.705,2.219 -4.341,4.956 l 3.62,27.205 h 164.087 l 1.406,-11.756 c 0.328,-2.742 -1.645,-4.964 -4.406,-4.964 H 101 z"/><path
            d="M 188.764,66.699 H 11.236 c -2.761,0 -4.514,2.185 -3.915,4.881 l 21.272,95.723 c 0.599,2.696 3.323,4.881 6.085,4.881 h 130.646 c 2.761,0 5.486,-2.185 6.085,-4.881 L 192.681,71.58 c 0.598,-2.696 -1.155,-4.881 -3.917,-4.881 z m -45.418,52.209 -39.811,39.811 c -1.953,1.953 -5.118,1.953 -7.071,0 L 56.653,118.908 c -1.953,-1.953 -1.297,-3.536 1.464,-3.536 H 68.558 L 65.1,94.819 c -0.534,-2.709 1.272,-4.906 4.033,-4.906 h 61.732 c 2.761,0 4.567,2.197 4.033,4.906 l -3.458,20.553 h 10.441 c 2.762,0 3.418,1.583 1.465,3.536 z"/>
    </g>

    <polygon id="Catalog"
             transform="scale(0.03125,0.03125)"
             points="0,64 0,448 512,448 512,128 256,128 192,64 "
            />

    <path id="Add Catalog"
          d="M 7.4238437,14 H 0 V 2 h 6 l 2,2 h 8 V 9.03125 C 15.087875,7.80566 13.641594,7 12,7 9.2431563,7 7,9.24316 7,12 c 0,0.71191 0.1543125,1.38672 0.4238437,2 z M 16,12 c 0,2.208 -1.790031,4 -4,4 -2.209,0 -4,-1.792 -4,-4 0,-2.208 1.7910313,-4 4,-4 2.209969,0 4,1.792 4,4 z m -1,1 V 11 H 13 V 9 h -2 v 2 H 9 v 2 h 2 v 2 h 2 v -2 h 2 z"
            />

    <g id="Save"
       transform="matrix(0.08620952,0,0,0.08620952,-0.62102317,-0.96583318)">
        <path d="M 188.764,70.699 H 11.236 c -2.761,0 -4.514,2.185 -3.915,4.881 l 21.272,95.723 c 0.599,2.696 3.323,4.881 6.085,4.881 H 65.56 c 2.761,0 4.81,-2.231 4.575,-4.982 L 68.56,152.743 H 58.118 c -2.761,0 -3.417,-1.583 -1.464,-3.535 l 39.811,-39.812 c 1.953,-1.952 5.118,-1.952 7.071,0 l 39.811,39.812 c 1.953,1.952 1.297,3.535 -1.464,3.535 h -10.441 l -1.575,18.459 c -0.235,2.751 1.814,4.982 4.575,4.982 h 30.882 c 2.761,0 5.486,-2.186 6.085,-4.881 L 192.681,75.58 c 0.598,-2.696 -1.155,-4.881 -3.917,-4.881 z"/>
        <path d="m 182.044,63.978 1.406,-11.756 c 0.328,-2.742 -1.645,-4.964 -4.406,-4.964 H 101 c -2.761,0 -6.869,-1.231 -9.175,-2.75 l -15.09,-9.94 c -2.306,-1.52 -6.414,-2.751 -9.176,-2.751 H 18.677 c -2.761,0 -4.705,2.219 -4.341,4.957 l 3.62,27.205 h 164.088 z" />
    </g>


    <g id="Save As"
       transform="translate(-4.4825,-5.0005)">
        <polygon points="19.875,10.152 16.137,10.152 16.137,10.911 19.117,10.911 19.117,15.09 16.137,15.09 16.137,15.848 19.875,15.848 "
                />
        <polygon points="13.221,15.848 13.221,15.09 5.848,15.09 5.848,10.911 13.221,10.911 13.221,10.152 5.09,10.152 5.09,15.848 "
                />
        <path d="M 15.228,17.434 C 15.197,17.402 15.175,17.366 15.157,17.319 V 8.835 L 15.155,8.777 C 15.17,8.703 15.2,8.642 15.249,8.591 15.394,8.44 15.676,8.408 15.887,8.408 h 0.395 V 7.421 h -0.395 c -0.506,0 -0.914,0.122 -1.215,0.362 C 14.369,7.526 13.951,7.396 13.429,7.396 h -0.395 v 0.988 h 0.395 c 0.21,0 0.492,0.031 0.637,0.183 0.032,0.032 0.056,0.071 0.072,0.116 v 8.503 c 0,0.005 -10e-4,0.143 -0.103,0.248 -0.146,0.152 -0.428,0.185 -0.639,0.185 h -0.395 v 0.986 h 0.395 c 0.518,0 0.933,-0.128 1.235,-0.379 0.303,0.253 0.717,0.379 1.234,0.379 h 0.396 v -0.986 h -0.396 c -0.211,-0.001 -0.492,-0.033 -0.637,-0.185 z"
                />
    </g>

    <path id="Polyline"
          d="m 14.666667,7.333333 c -0.07867,0 -0.153334,0.01 -0.229334,0.02333 L 12.41,4.113333 c 0.159333,-0.22 0.256667,-0.488 0.256667,-0.78 C 12.666667,2.597333 12.069333,2 11.333333,2 c -0.388,0 -0.734666,0.168 -0.978,0.432667 L 7.3293333,1.298 C 7.3106667,0.5786667 6.724,0 6,0 5.264,0 4.6666667,0.5973333 4.6666667,1.3333333 c 0,0.2786667 0.086,0.5366667 0.232,0.7506667 L 2.2693333,6.027333 C 2.1826667,6.009333 2.0926667,6 2,6 1.264,6 0.66666667,6.597333 0.66666667,7.333333 c 0,0.515334 0.296,0.958 0.72400003,1.18 l -0.44400003,4.884 C 0.4,13.564 0,14.066667 0,14.666667 0,15.402667 0.59733333,16 1.3333333,16 1.8926667,16 2.37,15.654667 2.568,15.166667 H 8.7653333 C 8.9633333,15.654667 9.4406667,16 10,16 c 0.736,0 1.333333,-0.597333 1.333333,-1.333333 0,-0.242667 -0.06933,-0.467334 -0.183333,-0.664 l 3.156667,-4.058 C 14.422,9.977333 14.541333,10 14.666667,10 15.402667,10 16,9.402667 16,8.666667 16,7.930667 15.402667,7.333333 14.666667,7.333333 z m -4.666667,6 c -0.5593333,0 -1.0366667,0.345334 -1.2346667,0.833334 H 2.568 c -0.12,-0.295334 -0.344,-0.534 -0.6253333,-0.68 l 0.444,-4.884 C 2.9326667,8.436 3.3333333,7.934 3.3333333,7.333333 c 0,-0.278666 -0.086,-0.536666 -0.232,-0.750666 L 5.7306667,2.639333 c 0.086667,0.018 0.1766666,0.02733 0.2693333,0.02733 0.388,0 0.734,-0.168 0.9773333,-0.432667 l 3.0259997,1.134667 c 0.01933,0.719333 0.606,1.298 1.33,1.298 0.07867,0 0.153334,-0.01 0.229334,-0.02333 l 2.026666,3.243334 c -0.158666,0.22 -0.256,0.488 -0.256,0.78 0,0.242666 0.06933,0.467333 0.183334,0.664 L 10.36,13.388667 C 10.244667,13.356 10.125333,13.333333 10,13.333333 z"
            />

    <g id="Markup"
       transform="matrix(0.16930411,0,0,0.16690827,-0.46529002,-0.3454319)">
        <path d="M 96.667,48.582 72.548,24.463 c -0.75,-0.75 -2.078,-0.75 -2.828,0 l -5.229,5.229 c -0.781,0.781 -0.781,2.047 0,2.828 L 81.967,49.995 64.493,67.472 c -0.781,0.781 -0.781,2.047 0,2.828 l 5.228,5.229 c 0.375,0.375 0.884,0.586 1.414,0.586 0.53,0 1.039,-0.211 1.414,-0.586 L 96.667,51.41 c 0.781,-0.781 0.781,-2.047 0,-2.828 z"
                />
        <path d="M 35.508,67.472 18.033,49.996 35.51,32.521 c 0.375,-0.375 0.586,-0.883 0.586,-1.414 0,-0.53 -0.21,-1.039 -0.586,-1.414 l -5.229,-5.229 c -0.375,-0.375 -0.884,-0.586 -1.414,-0.586 -0.53,0 -1.039,0.211 -1.414,0.586 L 3.334,48.582 c -0.781,0.781 -0.781,2.047 0,2.828 l 24.118,24.119 c 0.375,0.375 0.884,0.586 1.414,0.586 0.53,0 1.039,-0.211 1.414,-0.586 L 35.509,70.3 c 0.781,-0.78 0.781,-2.047 -10e-4,-2.828 z"
                />
        <path d="m 63.715,16.348 c -0.253,-0.466 -0.682,-0.812 -1.19,-0.962 l -4.239,-1.251 c -1.058,-0.314 -2.172,0.293 -2.484,1.352 L 36.123,82.13 c -0.15,0.509 -0.092,1.056 0.161,1.522 0.253,0.466 0.682,0.812 1.19,0.962 l 4.239,1.251 c 0.189,0.056 0.38,0.083 0.567,0.083 0.863,0 1.66,-0.564 1.917,-1.434 L 63.876,17.87 c 0.151,-0.509 0.093,-1.056 -0.161,-1.522 z"
                />
    </g>

    <g id="Image"
       transform="scale(0.5818182,0.5892318)">
        <path d="M 26.463,0 H 1.037 C 0.467,0 0,0.468 0,1.038 v 25.079 c 0,0.569 0.467,1.037 1.037,1.037 h 25.426 c 0.57,0 1.037,-0.468 1.037,-1.037 V 1.038 C 27.5,0.468 27.033,0 26.463,0 z M 24.572,20.549 H 2.625 V 2.799 h 21.947 v 17.75 z"
                />
        <circle cx="6.8540001"
                cy="7.329"
                r="3.0480001"
                />
        <path d="m 7.441,14.561 -2.86,3.371 c -0.712,0.839 -0.394,1.525 0.706,1.525 h 16.378 c 1.101,0 1.562,-0.786 1.024,-1.746 L 17.751,8.879 C 17.215,7.919 16.298,7.896 15.714,8.829 l -2.871,4.587 c -0.584,0.933 -1.747,1.229 -2.585,0.658 C 9.42,13.503 8.153,13.722 7.441,14.561 z"
                />
    </g>

    <path id="Grid"
          transform="scale(0.5)"
          d="M 0,0 V 32 H 32 V 0 H 0 z M 29.938,20.063 H 22 V 12 h 7.938 v 8.063 z m -9.938,0 H 12 V 12 h 8 v 8.063 z M 20,22 v 8 h -8 v -8 h 8 z M 2,12 h 8 v 8.062 H 2 V 12 z M 12,10 V 2.063 h 8 V 10 H 12 z M 10,2.063 V 10 H 2 V 2.063 h 8 z M 2,22 h 8 v 8 H 2 v -8 z m 20,8 v -8 h 7.938 v 8 H 22 z M 29.938,10 H 22 V 2.063 h 7.938 V 10 z"
            />

    <g  id="Layers"
        transform="matrix(0.68660689,0,0,0.68660689,0,0.71911044)">
        <polygon points="23.303,6.333 11.652,0 0,6.333 11.652,12.667 "/>
        <polygon points="23.303,10.732 21.137,9.555 11.652,14.709 2.166,9.555 0,10.732 11.652,17.063 " />
        <polygon points="23.303,15.127 21.137,13.952 11.652,19.107 2.166,13.952 0,15.127 11.652,21.461 " />
    </g>

    <path id="Shapes"
          fill-rule="evenodd"
          d="M14.006,0H1.994C0.893,0,0,0.895,0,1.994v12.012C0,15.107,0.895,16,1.994,16  h12.012C15.107,16,16,15.105,16,14.006V1.994C16,0.893,15.105,0,14.006,0z M3,13l2-4l2,4H3z M7,7H3V3h4V7z M13,11.99  c0,0.566-0.452,1.01-1.01,1.01h-1.98C9.443,13,9,12.548,9,11.99v-1.98C9,9.443,9.452,9,10.01,9h1.98C12.557,9,13,9.452,13,10.01  V11.99z M11,7C9.896,7,9,6.104,9,5s0.896-2,2-2s2,0.896,2,2S12.104,7,11,7z"
            />

    <path id="About"
          d="m 15.383,0.07170671 c -0.373,-0.1458807 -0.804,-0.0649404 -1.09,0.2042331 L 10.426,3.9154287 6.125,0.67687651 C 5.729,0.37946801 5.152,0.40676181 4.793,0.74652281 L 0.293,4.9817697 C 0.105,5.1577678 0,5.3968239 0,5.6471741 v 9.4116599 c 0,0.380231 0.243,0.724698 0.617,0.869637 C 0.741,15.978353 0.871,16 1,16 1.26,16 1.516,15.904 1.707,15.724238 l 3.867,-3.639489 4.301,3.238553 c 0.396,0.297408 0.971,0.268232 1.332,-0.06965 l 4.5,-4.235247 C 15.895,10.84241 16,10.603354 16,10.353004 V 0.94134411 c 0,-0.380231 -0.243,-0.7246978 -0.617,-0.8696374 z M 2,12.786859 V 6.036817 L 5,3.2133188 v 6.8140422 c -0.07,0.04047 -3,2.759498 -3,2.759498 z M 6.125,10.088536 C 6.087,10.061246 6.041,10.046186 6,10.024536 V 2.9949683 c 0,0 3.959,2.9580847 4,2.9797315 V 13.008033 L 6.125,10.088536 z M 14,9.963361 11,12.786859 V 5.9765822 c 0.07,-0.04047 3,-2.7632634 3,-2.7632634 V 9.963361 z"
            />
</svg>